<?xml version='1.0' encoding='UTF-8'?>
<svg xmlns="http://www.w3.org/2000/svg" font-family="ConsolasFallback,Consolas,Menlo,monospace" width="1100px" height="560px" font-size="13.5px">
<style>
@font-face {
  src: local('Consolas'), local('Menlo'), local('Courier New');
  font-family: 'ConsolasFallback';
  font-display: swap;
}
.key { fill: #953800; }
.value { fill: #0a3069; }
.addColor { fill: #1a7f37; }
.delColor { fill: #cf222e; }
.cc { fill: #8b949e; }
.section { fill: #24292f; font-weight: bold; }
.title { fill: #24292f; font-weight: bold; font-size: 15px; }
.sep { fill: #d0d7de; }
text, tspan { white-space: pre; }
</style>
<rect width="1100px" height="560px" fill="#f6f8fa" rx="15"/>
<line x1="525" y1="18" x2="525" y2="542" stroke="#d0d7de" stroke-width="1" opacity="0.5"/>
<text x="10" y="18" fill="#24292f" class="ascii" font-size="11px">
<tspan x="10" y="18.0"></tspan>
<tspan x="10" y="35.0">                           =:  :</tspan>
<tspan x="10" y="52.1">                   :.:  :-==. .-+=+</tspan>
<tspan x="10" y="69.1">                =-+:</tspan>
<tspan x="10" y="86.1">              ==--</tspan>
<tspan x="10" y="103.2">             =--</tspan>
<tspan x="10" y="120.2">            +=*</tspan>
<tspan x="10" y="137.2"></tspan>
<tspan x="10" y="154.3">          ++               +=---=++</tspan>
<tspan x="10" y="171.3">          *+=           =:... ..--==+</tspan>
<tspan x="10" y="188.3">            =      ::  .        .::-=*</tspan>
<tspan x="10" y="205.4">                =..            .::-====</tspan>
<tspan x="10" y="222.4">                -.::::      .*+:...-++--</tspan>
<tspan x="10" y="239.4">                ::.  .-=-. .+ -. :=** +::</tspan>
<tspan x="10" y="256.5">                . :- -=-:.  =*+:.==----=.: +</tspan>
<tspan x="10" y="273.5">                  .. ..     .=+=.     --:: ++</tspan>
<tspan x="10" y="290.5">              ::            .--=:    :=+-=  **</tspan>
<tspan x="10" y="307.5">                .        . :=  =-::::=*+=+*==</tspan>
<tspan x="10" y="324.6">                 .      .-=.-=     +++ +-= --</tspan>
<tspan x="10" y="341.6">                   .. = +=:  .-* ==*   *==</tspan>
<tspan x="10" y="358.6">                   . .:.   .::====+     =-</tspan>
<tspan x="10" y="375.7">                    ....     .::-+      +:.:</tspan>
<tspan x="10" y="392.7">                      .-:.. .:-++       *= -  </tspan>
<tspan x="10" y="409.7">                      .-=++**            * +. . </tspan>
<tspan x="10" y="426.8">                       .:----=+     ***    .      </tspan>
<tspan x="10" y="443.8">                      -   :..:===+=---=+             </tspan>
<tspan x="10" y="460.8">                     +#.   ....:::...:-+*    .....  . </tspan>
<tspan x="10" y="477.9">                    =++:.      .:...:--=++    ....  -  </tspan>
<tspan x="10" y="494.9">                   .* =...     ..  :-:--:     ...   :  </tspan>
<tspan x="10" y="511.9">                   == +.  .       ::.        ....   :  </tspan>
<tspan x="10" y="529.0">                   -                         ...     . </tspan>
<tspan x="10" y="546.0">                  .-                        ::.      =</tspan>
</text>
<text font-size="13.5px" fill="#24292f">
<tspan x="545" y="26" class="title">niraj@knokvik</tspan>
<tspan x="545" y="46" class="sep">──────────────────────────</tspan>
<tspan x="545" y="64" class="key">OS</tspan>
<tspan x="705" y="64" class="value">macOS, Linux</tspan>
<tspan x="545" y="82" class="key">Uptime</tspan>
<tspan x="705" y="82" class="value" id="age_data">19 years, 11 months, 10 days</tspan>
<tspan x="545" y="100" class="key">Host</tspan>
<tspan x="705" y="100" class="value">Pune, Maharashtra, India</tspan>
<tspan x="545" y="118" class="key">Kernel</tspan>
<tspan x="705" y="118" class="value">Software Engineer · Full-Stack</tspan>
<tspan x="545" y="136" class="key">IDE</tspan>
<tspan x="705" y="136" class="value">VS Code, Cursor, CLion</tspan>
<tspan x="545" y="164" class="section">Languages</tspan>
<tspan x="545" y="182" class="key">Programming</tspan>
<tspan x="705" y="182" class="value">TypeScript, Python, JS, Dart, C++</tspan>
<tspan x="545" y="200" class="key">Computer</tspan>
<tspan x="705" y="200" class="value">HTML, CSS, Go, SQL, YAML</tspan>
<tspan x="545" y="218" class="key">Real</tspan>
<tspan x="705" y="218" class="value">English, Hindi, Marathi</tspan>
<tspan x="545" y="246" class="section">Hobbies</tspan>
<tspan x="545" y="264" class="key">Software</tspan>
<tspan x="705" y="264" class="value">ML Systems, Quant, Realtime UI</tspan>
<tspan x="545" y="282" class="key">Hardware</tspan>
<tspan x="705" y="282" class="value">Embedded, STM32, IoT</tspan>
<tspan x="545" y="310" class="section">Contact</tspan>
<tspan x="545" y="328" class="key">Website</tspan>
<tspan x="705" y="328" class="value">knokvik.vercel.app</tspan>
<tspan x="545" y="346" class="key">LinkedIn</tspan>
<tspan x="705" y="346" class="value">niraj-naphade</tspan>
<tspan x="545" y="364" class="key">Discord</tspan>
<tspan x="705" y="364" class="value">ultron890</tspan>
<tspan x="545" y="382" class="key">GitHub</tspan>
<tspan x="705" y="382" class="value">knokvik</tspan>
<tspan x="545" y="400" class="key">Status</tspan>
<tspan x="705" y="400" class="value">Open to work</tspan>
<tspan x="545" y="428" class="section">GitHub Stats</tspan>
<tspan x="545" y="446" class="key">Repos</tspan>
<tspan x="705" y="446" class="value" id="repo_data">37</tspan>
<tspan class="cc">  {</tspan>
<tspan class="key">Contributed</tspan>
<tspan class="cc">: </tspan>
<tspan class="value" id="contrib_data">43</tspan>
<tspan class="cc">}</tspan>
<tspan x="545" y="464" class="key">Stars</tspan>
<tspan x="705" y="464" class="value" id="star_data">1</tspan>
<tspan x="545" y="482" class="key">Commits</tspan>
<tspan x="705" y="482" class="value" id="commit_data">1,016</tspan>
<tspan x="545" y="500" class="key">Followers</tspan>
<tspan x="705" y="500" class="value" id="follower_data">5</tspan>
<tspan x="545" y="518" class="key">LOC</tspan>
<tspan x="705" y="518" class="value" id="loc_data">1,638,907</tspan>
<tspan class="cc">  ( </tspan>
<tspan class="addColor" id="loc_add">1,712,634</tspan>
<tspan class="addColor">++</tspan>
<tspan class="cc">, </tspan>
<tspan class="delColor" id="loc_del">73,727</tspan>
<tspan class="delColor">--</tspan>
<tspan class="cc"> )</tspan>
</text>
<text opacity="0" font-size="1px"><tspan id="age_data_dots" x="0" y="0"> </tspan><tspan id="repo_data_dots" x="0" y="0"> </tspan><tspan id="star_data_dots" x="0" y="0"> </tspan><tspan id="commit_data_dots" x="0" y="0"> </tspan><tspan id="follower_data_dots" x="0" y="0"> </tspan><tspan id="loc_data_dots" x="0" y="0"> </tspan><tspan id="loc_del_dots" x="0" y="0"> </tspan></text>
</svg>
