<?xml version='1.0' encoding='UTF-8'?>
<svg xmlns="http://www.w3.org/2000/svg" font-family="ConsolasFallback,Consolas,Menlo,monospace" width="1100px" height="540px" font-size="14px">
<style>
@font-face {
  src: local('Consolas'), local('Menlo'), local('Courier New');
  font-family: 'ConsolasFallback';
  font-display: swap;
  size-adjust: 100%;
}
.key { fill: #953800; }
.value { fill: #0a3069; }
.addColor { fill: #1a7f37; }
.delColor { fill: #cf222e; }
.cc { fill: #8b949e; }
.section { fill: #24292f; font-weight: bold; }
.title { fill: #24292f; font-weight: bold; font-size: 15px; }
.sep { fill: #d0d7de; }
text, tspan { white-space: pre; }
</style>
<rect width="1100px" height="540px" fill="#f6f8fa" rx="15"/>
<!-- subtle divider between ASCII and details -->
<line x1="520" y1="20" x2="520" y2="520" stroke="#d0d7de" stroke-width="1" opacity="0.55"/>
<text x="10" y="20" fill="#24292f" class="ascii" font-size="11px">
<tspan x="10" y="20.0"></tspan>
<tspan x="10" y="36.3">                           =:  :</tspan>
<tspan x="10" y="52.5">                   :.:  :-==. .-+=+</tspan>
<tspan x="10" y="68.8">                =-+:</tspan>
<tspan x="10" y="85.0">              ==--</tspan>
<tspan x="10" y="101.3">             =--</tspan>
<tspan x="10" y="117.5">            +=*</tspan>
<tspan x="10" y="133.8"></tspan>
<tspan x="10" y="150.1">          ++               +=---=++</tspan>
<tspan x="10" y="166.3">          *+=           =:... ..--==+</tspan>
<tspan x="10" y="182.6">            =      ::  .        .::-=*</tspan>
<tspan x="10" y="198.8">                =..            .::-====</tspan>
<tspan x="10" y="215.1">                -.::::      .*+:...-++--</tspan>
<tspan x="10" y="231.4">                ::.  .-=-. .+ -. :=** +::</tspan>
<tspan x="10" y="247.6">                . :- -=-:.  =*+:.==----=.: +</tspan>
<tspan x="10" y="263.9">                  .. ..     .=+=.     --:: ++</tspan>
<tspan x="10" y="280.1">              ::            .--=:    :=+-=  **</tspan>
<tspan x="10" y="296.4">                .        . :=  =-::::=*+=+*==</tspan>
<tspan x="10" y="312.6">                 .      .-=.-=     +++ +-= --</tspan>
<tspan x="10" y="328.9">                   .. = +=:  .-* ==*   *==</tspan>
<tspan x="10" y="345.2">                   . .:.   .::====+     =-</tspan>
<tspan x="10" y="361.4">                    ....     .::-+      +:.:</tspan>
<tspan x="10" y="377.7">                      .-:.. .:-++       *= -  </tspan>
<tspan x="10" y="393.9">                      .-=++**            * +. . </tspan>
<tspan x="10" y="410.2">                       .:----=+     ***    .      </tspan>
<tspan x="10" y="426.5">                      -   :..:===+=---=+             </tspan>
<tspan x="10" y="442.7">                     +#.   ....:::...:-+*    .....  . </tspan>
<tspan x="10" y="459.0">                    =++:.      .:...:--=++    ....  -  </tspan>
<tspan x="10" y="475.2">                   .* =...     ..  :-:--:     ...   :  </tspan>
<tspan x="10" y="491.5">                   == +.  .       ::.        ....   :  </tspan>
<tspan x="10" y="507.7">                   -                         ...     . </tspan>
<tspan x="10" y="524.0">                  .-                        ::.      =</tspan>
</text>
<text font-size="14px" fill="#24292f">
<tspan x="540" y="28" class="title">niraj@knokvik</tspan>
<tspan x="540" y="48" class="sep">────────────────────────────</tspan>
<tspan x="540" y="68" class="key">OS</tspan>
<tspan x="700" y="68" class="value">macOS, Linux</tspan>
<tspan x="540" y="88" class="key">Uptime</tspan>
<tspan x="700" y="88" class="value" id="age_data">19 years, 11 months, 10 days</tspan>
<tspan x="540" y="108" class="key">Host</tspan>
<tspan x="700" y="108" class="value">Pune, Maharashtra, India</tspan>
<tspan x="540" y="128" class="key">Kernel</tspan>
<tspan x="700" y="128" class="value">Software Engineer · Full-Stack</tspan>
<tspan x="540" y="148" class="key">IDE</tspan>
<tspan x="700" y="148" class="value">VS Code, Cursor, CLion</tspan>
<tspan x="540" y="176" class="section">Languages</tspan>
<tspan x="540" y="196" class="key">Programming</tspan>
<tspan x="700" y="196" class="value">TypeScript, Python, JS, Dart, C++</tspan>
<tspan x="540" y="216" class="key">Computer</tspan>
<tspan x="700" y="216" class="value">HTML, CSS, Go, SQL, YAML</tspan>
<tspan x="540" y="236" class="key">Real</tspan>
<tspan x="700" y="236" class="value">English, Hindi, Marathi</tspan>
<tspan x="540" y="264" class="section">Hobbies</tspan>
<tspan x="540" y="284" class="key">Software</tspan>
<tspan x="700" y="284" class="value">ML Systems, Quant, Realtime UI</tspan>
<tspan x="540" y="304" class="key">Hardware</tspan>
<tspan x="700" y="304" class="value">Embedded, STM32, IoT</tspan>
<tspan x="540" y="332" class="section">Contact</tspan>
<tspan x="540" y="352" class="key">Website</tspan>
<tspan x="700" y="352" class="value">knokvik.vercel.app</tspan>
<tspan x="540" y="372" class="key">LinkedIn</tspan>
<tspan x="700" y="372" class="value">niraj-naphade</tspan>
<tspan x="540" y="392" class="key">Discord</tspan>
<tspan x="700" y="392" class="value">ultron890</tspan>
<tspan x="540" y="412" class="key">GitHub</tspan>
<tspan x="700" y="412" class="value">knokvik</tspan>
<tspan x="540" y="432" class="key">Status</tspan>
<tspan x="700" y="432" class="value">Open to work</tspan>
<tspan x="540" y="460" class="section">GitHub Stats</tspan>
<tspan x="540" y="480" class="key">Repos</tspan>
<tspan x="700" y="480" class="value" id="repo_data">37</tspan>
<tspan class="cc" dx="8">{</tspan>
<tspan class="key">Contributed</tspan>
<tspan class="cc">: </tspan>
<tspan class="value" id="contrib_data">43</tspan>
<tspan class="cc">}</tspan>
<tspan x="540" y="500" class="key">Stars</tspan>
<tspan x="700" y="500" class="value" id="star_data">1</tspan>
<tspan x="540" y="520" class="key">Commits</tspan>
<tspan x="700" y="520" class="value" id="commit_data">1,016</tspan>
<tspan x="540" y="540" class="key">Followers</tspan>
<tspan x="700" y="540" class="value" id="follower_data">5</tspan>
<tspan x="540" y="560" class="key">LOC</tspan>
<tspan x="700" y="560" class="value" id="loc_data">1,638,907</tspan>
<tspan class="cc" dx="6">( </tspan>
<tspan class="addColor" id="loc_add">1,712,634</tspan>
<tspan class="addColor">++</tspan>
<tspan class="cc">, </tspan>
<tspan class="delColor" id="loc_del">73,727</tspan>
<tspan class="delColor">--</tspan>
<tspan class="cc"> )</tspan>
</text>
<text opacity="0" font-size="1px"><tspan id="age_data_dots" x="0" y="0" opacity="0"> </tspan><tspan id="repo_data_dots" x="0" y="0" opacity="0"> </tspan><tspan id="star_data_dots" x="0" y="0" opacity="0"> </tspan><tspan id="commit_data_dots" x="0" y="0" opacity="0"> </tspan><tspan id="follower_data_dots" x="0" y="0" opacity="0"> </tspan><tspan id="loc_data_dots" x="0" y="0" opacity="0"> </tspan><tspan id="loc_del_dots" x="0" y="0" opacity="0"> </tspan></text>
</svg>
